{"title":"Gun N Goal (2015) 720p - Punjabi Untouched Web HD - x264 - Team ","uid":12018307,"size":1850376797,"categoryP":"video","categoryS":"movies","magnet":"?xt=urn:btih:dedd14c7c8f169af30bfbbe2cecb263424b44189&amp;dn=Gun+N+Goal+%282015%29+720p+-+Punjabi+Untouched+Web+HD+-+x264+-+Team+&amp;tr=udp%3A%2F%2Ftracker.openbittorrent.com%3A80&amp;tr=udp%3A%2F%2Fopen.demonii.com%3A1337&amp;tr=udp%3A%2F%2Ftracker.coppersurfer.tk%3A6969&amp;tr=udp%3A%2F%2Fexodus.desync.com%3A6969","seeders":4,"leechers":4,"uploader":"SS132203","files":2,"time":1434349245,"description":"Gun N Goal (2015) 720p - Punjabi Untouched Web HD - x264 - Team IcTv Exclusive\n &lt;a href=&quot;\nhttp://imgsparrow.co/image/47&quot; rel=&quot;nofollow&quot; target=&quot;_NEW&quot;&gt;\nhttp://imgsparrow.co/image/47&lt;/a&gt;\n &lt;a href=&quot;\nhttp://imgsparrow.co/image/yk&quot; rel=&quot;nofollow&quot; target=&quot;_NEW&quot;&gt;\nhttp://imgsparrow.co/image/yk&lt;/a&gt;\n\nInfo : - \n\nAll Credit Goes To Intellect Clever &amp; IcTv\n\nExclusive First On Net\n\nMovie Info\nYear : 2015\nBanner : Sarao Films\nCast : Sumeet Singh Sarao and Rishita Monga\nVideo: AVC\nAudio : AAC\nGenre : Drama film, Sports\nSubtitles : NONE\nResolution : 720P-1080P-480p\nRuntime : 2hr 23min xx\nSource : Team IcTv \n\nFormat                      : MPEG-4\nFormat profile              : Base Media / Version 2\nCodec ID                    : mp42\nFile size                   : 1.72 GiB\nDuration                    : 2h 23mn\nOverall bit rate mode       : Variable\nOverall bit rate            : 1 715 Kbps\n\nVideo\nID                          : 1\nFormat                      : AVC\nFormat/Info                 : Advanced Video Codec\nFormat profile              : &lt;a class=&quot;__cf_email__&quot; href=&quot;/cdn-cgi/l/email-protection&quot; data-cfemail=&quot;763e1f111e363a455847&quot;&gt;[email&amp;#160;protected]&lt;/a&gt;&lt;script data-cfhash='f9e31' type=&quot;text/javascript&quot;&gt;\n/* &lt;![CDATA[ */!function(){try{var t=&quot;currentScript&quot;in document?document.currentScript:function(){for(var t=document.getElementsByTagName(&quot;script&quot;),e=t.length;e--;)if(t[e].getAttribute(&quot;data-cfhash&quot;))return t[e]}();if(t&amp;&amp;t.previousSibling){var e,r,n,i,c=t.previousSibling,a=c.getAttribute(&quot;data-cfemail&quot;);if(a){for(e=&quot;&quot;,r=parseInt(a.substr(0,2),16),n=2;a.length-n;n+=2)i=parseInt(a.substr(n,2),16)^r,e+=String.fromCharCode(i);e=document.createTextNode(e),c.parentNode.replaceChild(e,c)}t.parentNode.removeChild(t);}}catch(u){}}()/* ]]&gt; */&lt;/script&gt;\nFormat settings, CABAC      : Yes\nFormat settings, ReFrames   : 1 frame\nFormat settings, GOP        : M=1, N=60\nCodec ID                    : avc1\nCodec ID/Info               : Advanced Video Coding\nDuration                    : 2h 23mn\nBit rate                    : 1 521 Kbps\nMaximum bit rate            : 6 762 Kbps\nWidth                       : 1 280 pixels\nHeight                      : 720 pixels\nDisplay aspect ratio        : 16:9\nFrame rate mode             : Constant\nFrame rate                  : 24.000 fps\nColor space                 : YUV\nChroma subsampling          : 4:2:0\nBit depth                   : 8 bits\nScan type                   : Progressive\nBits/(Pixel*Frame)          : 0.069\nStream size                 : 1.53 GiB (89%)\nTagged date                 : UTC 2015-06-09 07:00:16\n\nAudio\nID                          : 2\nFormat                      : AAC\nFormat/Info                 : Advanced Audio Codec\nFormat profile              : LC\nCodec ID                    : 40\nDuration                    : 2h 23mn\nBit rate mode               : Variable\nBit rate                    : 192 Kbps\nMaximum bit rate            : 201 Kbps\nChannel(s)                  : 2 channels\nChannel positions           : Front: L R\nSampling rate               : 44.1 KHz\nCompression mode            : Lossy\nStream size                 : 198 MiB (11%)\n\nScreens : - \n &lt;a href=&quot;\nhttp://imgsparrow.co/image/yh&quot; rel=&quot;nofollow&quot; target=&quot;_NEW&quot;&gt;\nhttp://imgsparrow.co/image/yh&lt;/a&gt; &lt;a href=&quot;\nhttp://imgsparrow.co/image/yj&quot; rel=&quot;nofollow&quot; target=&quot;_NEW&quot;&gt;\nhttp://imgsparrow.co/image/yj&lt;/a&gt; &lt;a href=&quot;\nhttp://imgsparrow.co/image/yr&quot; rel=&quot;nofollow&quot; target=&quot;_NEW&quot;&gt;\nhttp://imgsparrow.co/image/yr&lt;/a&gt; &lt;a href=&quot;\nhttp://imgsparrow.co/image/yD&quot; rel=&quot;nofollow&quot; target=&quot;_NEW&quot;&gt;\nhttp://imgsparrow.co/image/yD&lt;/a&gt; &lt;a href=&quot;\nhttp://imgsparrow.co/image/yG&quot; rel=&quot;nofollow&quot; target=&quot;_NEW&quot;&gt;\nhttp://imgsparrow.co/image/yG&lt;/a&gt; &lt;a href=&quot;\nhttp://imgsparrow.co/image/ye&quot; rel=&quot;nofollow&quot; target=&quot;_NEW&quot;&gt;\nhttp://imgsparrow.co/image/ye&lt;/a&gt; &lt;a href=&quot;\nhttp://imgsparrow.co/image/yg&quot; rel=&quot;nofollow&quot; target=&quot;_NEW&quot;&gt;\nhttp://imgsparrow.co/image/yg&lt;/a&gt; &lt;a href=&quot;\nhttp://imgsparrow.co/image/yq&quot; rel=&quot;nofollow&quot; target=&quot;_NEW&quot;&gt;\nhttp://imgsparrow.co/image/yq&lt;/a&gt; &lt;a href=&quot;\nhttp://imgsparrow.co/image/yz&quot; rel=&quot;nofollow&quot; target=&quot;_NEW&quot;&gt;\nhttp://imgsparrow.co/image/yz&lt;/a&gt; &lt;a href=&quot;\nhttp://imgsparrow.co/image/y7&quot; rel=&quot;nofollow&quot; target=&quot;_NEW&quot;&gt;\nhttp://imgsparrow.co/image/y7&lt;/a&gt;\n &lt;a href=&quot;\nhttp://imgsparrow.co/image/N2&quot; rel=&quot;nofollow&quot; target=&quot;_NEW&quot;&gt;\nhttp://imgsparrow.co/image/N2&lt;/a&gt;","torrent":{"xt":"urn:btih:dedd14c7c8f169af30bfbbe2cecb263424b44189","amp;dn":"Gun+N+Goal+%282015%29+720p+-+Punjabi+Untouched+Web+HD+-+x264+-+Team+","amp;tr":["udp%3A%2F%2Ftracker.openbittorrent.com%3A80","udp%3A%2F%2Fopen.demonii.com%3A1337","udp%3A%2F%2Ftracker.coppersurfer.tk%3A6969","udp%3A%2F%2Fexodus.desync.com%3A6969"],"infoHash":"dedd14c7c8f169af30bfbbe2cecb263424b44189","infoHashBuffer":{"type":"Buffer","data":[222,221,20,199,200,241,105,175,48,191,187,226,206,203,38,52,36,180,65,137]},"announce":[],"urlList":[]}}